<?xml version="1.0" encoding="UTF-8"?>
<svg id="Ebene_3" data-name="Ebene 3" xmlns="http://www.w3.org/2000/svg" viewBox="0 0 160 80">
  <defs>
    <style>
      .cls-1 {
        fill: #d82b91;
        stroke-width: 0px;
      }
    </style>
  </defs>
  <path id="prefix_Path_1971" data-name="prefix  Path 1971" class="cls-1" d="M13.4477841,48.4319059h-3.4477841v-16.8581772h3.4477841v16.8581772Z"/>
  <path id="prefix_Path_1972" data-name="prefix  Path 1972" class="cls-1" d="M29.1222474,32.377438c1.2878043.7256733,2.352287,1.7901615,3.0779603,3.0779603l-2.6054956,1.8389159c-.9672571-1.758836-2.8201139-2.8466295-4.8273321-2.8340882-1.4626604-.0491543-2.8792658.5154372-3.9071465,1.5571867-1.035651,1.0721307-1.5893286,2.5202115-1.5331594,4.0097929-.0547363,1.4783398.4994746,2.9143792,1.5331594,3.9726689,1.0318353,1.0344291,2.4469021,1.5939108,3.9071465,1.5448009,2.0082123.0112083,3.8611803-1.0786069,4.8273321-2.8391758l2.6054956,1.839638c-.7138874,1.2923199-1.7759873,2.3584521-3.0655856,3.0772383-3.5172222,1.8952018-7.8522224,1.3297327-10.7655907-1.4043029-3.4314326-3.3962248-3.4599755-8.9311236-.0637562-12.3625507.0254603-.0257269.0510816-.0512982.0768585-.076703,1.7028945-1.6640099,4.0049775-2.570821,6.3852463-2.5152127,1.5243894-.0188008,3.0266954.3654416,4.3548674,1.1138314Z"/>
  <path id="prefix_Path_1973" data-name="prefix  Path 1973" class="cls-1" d="M38.0285439,48.4319059h-3.4485117v-16.8581772h3.4485117v16.8581772Z"/>
  <path id="prefix_Path_1974" data-name="prefix  Path 1974" class="cls-1" d="M59.2619612,33.0683089c2.1793749,2.062482,2.2741289,5.5011739.2116468,7.6805488-.0685828.0724707-.139165.143053-.2116468.2116468-1.2150171,1.0428936-2.7805128,1.5858906-4.3803443,1.5193295h-2.8857752v5.9520829h-3.4485117v-16.8581772h6.3335538c1.5958548-.0670387,3.1589177.4661885,4.3810775,1.4945691ZM51.9958416,34.6131098v4.8535477h2.8857752c.6921373.0400122,1.3705114-.2048708,1.8774951-.6777631.4599289-.4734811.7047674-1.1153532.67703-1.7748542.0262267-.6504478-.2242659-1.2815781-.6894157-1.7369971-.5082723-.4612841-1.1796815-.7005463-1.8651205-.6646553l-2.8857641.000722Z"/>
  <path id="prefix_Path_1975" data-name="prefix  Path 1975" class="cls-1" d="M71.0540329,46.2355464h-6.8963013l-.9463956,2.1963595h-3.7040364l7.5362073-17.1682993h1.1495002l7.5085364,17.1646669h-3.7033144l-.9441962-2.1927271ZM67.6062433,37.7296493l-2.222564,5.6703537h4.4407736l-2.2182096-5.6703537Z"/>
  <path id="prefix_Path_1976" data-name="prefix  Path 1976" class="cls-1" d="M87.7869915,48.4319059l-4.3679696-5.9520829h-2.5297869v5.9520829h-3.4485117v-16.8581772h6.3335538c1.5956215-.0669943,3.1584512.4662385,4.3803443,1.4945691,1.1313825.9927285,1.7552481,2.4423755,1.6984068,3.9464644.0188508,1.0061695-.2564245,1.9959543-.7920566,2.8479181-.5326884.8298916-1.283822,1.4968907-2.170877,1.927727l4.7763782,6.6414986h-3.8794812ZM80.889235,39.4397198h2.8857752c.6897934.0402454,1.3666679-.1993721,1.8774951-.6646553.4616729-.467316.7071224-1.1062666.67703-1.7624796.0262267-.6504478-.2242659-1.2815781-.6894157-1.7369971-.5082279-.4613508-1.1796593-.700624-1.8651205-.6646553h-2.8857641v4.8287872Z"/>
  <path id="prefix_Path_1977" data-name="prefix  Path 1977" class="cls-1" d="M96.6801746,48.4319059h-3.4485117v-16.8581772h3.4485117v16.8581772Z"/>
  <path id="prefix_Path_1978" data-name="prefix  Path 1978" class="cls-1" d="M108.6265743,32.1371983c.9306885.5641472,1.6935413,1.3669567,2.2094673,2.325216l-2.3499654,1.8134334c-.6556687-1.169173-1.8784393-1.9068211-3.2184695-1.9415679-.5300558-.0196617-1.0528911.1277901-1.4945691.4215052-.396556.2730759-.6235101.7319384-.5998716,1.2128398-.0170846.4023989.1469187.7913013.4469877,1.059956.4632836.363031.9748885.6597454,1.5200516.8816008l1.9153523.8430216c1.1787595.4709928,2.2480243,1.1794593,3.1412999,2.0813328.6901378.7850917,1.0546573,1.8039469,1.0191885,2.8486401.051476,1.418055-.5628364,2.7786466-1.6605607,3.6778319-1.2026535.9492727-2.7053206,1.4368169-4.2362027,1.3744548-1.3497166.0211614-2.679416-.3280621-3.8445456-1.0097242-1.1149422-.6543468-2.0359887-1.5932221-2.6688297-2.7205167l2.3747147-1.7872289c1.1749827,1.6345895,2.5542918,2.4518842,4.1379274,2.4518842.6265649.035991,1.247109-.1390762,1.7624796-.4972196.4220829-.3250406.659912-.8349014.6377287-1.3671789.0055097-.3259626-.0968646-.6445937-.2911935-.9063501-.175567-.245405-.4020324-.4500203-.6639333-.5998716-.2475156-.1363769-.6435495-.3322166-1.1880905-.5874969l-1.8134334-.8175391c-1.1340596-.4745697-2.1628568-1.1691064-3.0270064-2.0434868-.7051451-.7632528-1.0850941-1.7712551-1.059234-2.8100609-.0426226-1.3379973.5432747-2.6188756,1.5833912-3.4616139,1.1358036-.9037397,2.557902-1.3704558,4.0083377-1.3154863,1.179326-.0286872,2.343056.2739756,3.3589675.8735917l.0000111.0000333Z"/>
  <path id="prefix_Path_1979" data-name="prefix  Path 1979" class="cls-1" d="M133.5210998,48.4319059l-3.5759019-5.5939173-3.5766351,5.5939173h-3.9311682l5.5946393-8.5823334-5.2619451-8.2758437h3.9311682l3.2439408,5.3391146,3.2184583-5.3391146h3.9078852l-5.1593042,8.2758437,5.5167478,8.5823334h-3.9078852Z"/>
  <path id="prefix_Path_1980" data-name="prefix  Path 1980" class="cls-1" d="M142.6181206,45.3153664h7.3818794v3.1165506h-10.8296579v-16.8581772h3.4477785v13.7416266Z"/>
</svg>